<?xml version="1.0" encoding="UTF-8" standalone="no"?>
<svg xmlns:dc="http://purl.org/dc/elements/1.1/" xmlns:cc="http://creativecommons.org/ns#" xmlns:rdf="http://www.w3.org/1999/02/22-rdf-syntax-ns#" xmlns:svg="http://www.w3.org/2000/svg" xmlns="http://www.w3.org/2000/svg" xmlns:sodipodi="http://sodipodi.sourceforge.net/DTD/sodipodi-0.dtd" xmlns:inkscape="http://www.inkscape.org/namespaces/inkscape" width="16px" height="16px" viewBox="0 0 16 16" id="svg2" version="1.1" inkscape:version="0.91 r13725" sodipodi:docname="224.svg">
  <defs id="defs4"/>
  <sodipodi:namedview id="base" pagecolor="#ffffff" bordercolor="#666666" borderopacity="1.0" inkscape:pageopacity="0.0" inkscape:pageshadow="2" inkscape:zoom="22.627417" inkscape:cx="11.158955" inkscape:cy="8.8833672" inkscape:document-units="px" inkscape:current-layer="g5367" showgrid="true" units="px" inkscape:window-width="1366" inkscape:window-height="715" inkscape:window-x="-8" inkscape:window-y="-8" inkscape:window-maximized="1">
    <inkscape:grid type="xygrid" id="grid3336"/>
  </sodipodi:namedview>
  
  <g inkscape:label="Layer 1" inkscape:groupmode="layer" id="layer1" transform="translate(0,-1036.3622)">
    <g id="g5446" transform="translate(-66.999329,19.499601)">
      <g id="g5460" transform="translate(67.012722,-18.496791)">
        <g id="g6386" transform="translate(0.0168932,-1.00281)">
          <g id="g5367" transform="translate(-0.0253296,0.9892617)">
            <path style="color:#000000;font-style:normal;font-variant:normal;font-weight:normal;font-stretch:normal;font-size:medium;line-height:normal;font-family:sans-serif;text-indent:0;text-align:start;text-decoration:none;text-decoration-line:none;text-decoration-style:solid;text-decoration-color:#000000;letter-spacing:normal;word-spacing:normal;text-transform:none;direction:ltr;block-progression:tb;writing-mode:lr-tb;baseline-shift:baseline;text-anchor:start;white-space:normal;clip-rule:nonzero;display:inline;overflow:visible;visibility:visible;opacity:1;isolation:auto;mix-blend-mode:normal;color-interpolation:sRGB;color-interpolation-filters:linearRGB;solid-color:#000000;solid-opacity:1;fill:#000000;fill-opacity:1;fill-rule:nonzero;stroke:none;stroke-width:1;stroke-linecap:butt;stroke-linejoin:miter;stroke-miterlimit:4;stroke-dasharray:none;stroke-dashoffset:0;stroke-opacity:1;color-rendering:auto;image-rendering:auto;shape-rendering:auto;text-rendering:auto;enable-background:accumulate" d="M 5.3085938 2.9902344 L 5.1660156 3.1113281 C 3.5476517 4.5109281 2.0127084 5.8354469 0.56835938 7.1230469 L 0.14648438 7.5 L 0.5703125 7.8730469 C 2.254262 9.3527469 3.9841603 10.700922 5.140625 11.857422 L 5.2871094 12.003906 L 15.994141 12.003906 L 15.994141 2.9902344 L 5.3085938 2.9902344 z M 5.6816406 3.9902344 L 14.994141 3.9902344 L 14.994141 11.003906 L 5.6796875 11.003906 C 4.5763024 9.9243062 3.1100084 8.7433937 1.6621094 7.4960938 C 2.935796 6.3676937 4.2676954 5.2129344 5.6816406 3.9902344 z M 6.4941406 5.9902344 C 5.6716358 5.9902344 4.9941407 6.6677344 4.9941406 7.4902344 C 4.9941406 8.3127344 5.6716358 8.9902344 6.4941406 8.9902344 C 7.3166455 8.9902344 7.9941406 8.3127344 7.9941406 7.4902344 C 7.9941406 6.6677344 7.3166455 5.9902344 6.4941406 5.9902344 z M 6.4941406 6.9902344 C 6.7762053 6.9902344 6.9941406 7.2081344 6.9941406 7.4902344 C 6.9941406 7.7722344 6.7762053 7.9902344 6.4941406 7.9902344 C 6.212076 7.9902344 5.9941407 7.7722344 5.9941406 7.4902344 C 5.9941406 7.2081344 6.212076 6.9902344 6.4941406 6.9902344 z " transform="translate(-0.0049566,1035.3729)" id="path5280"/>
          </g>
        </g>
      </g>
    </g>
  </g>

	
	
	<metadata>
		<rdf:RDF xmlns:rdf="http://www.w3.org/1999/02/22-rdf-syntax-ns#" xmlns:rdfs="http://www.w3.org/2000/01/rdf-schema#" xmlns:dc="http://purl.org/dc/elements/1.1/">
			<rdf:Description about="https://iconscout.com/legal#licenses" dc:title="Tag, Name, Tags, Badge, Badges, Ticket, Interface, UI" dc:description="Tag, Name, Tags, Badge, Badges, Ticket, Interface, UI" dc:publisher="Iconscout" dc:date="2016-12-14" dc:format="image/svg+xml" dc:language="en">
				<dc:creator>
					<rdf:Bag>
						<rdf:li>Chamestudio</rdf:li>
					</rdf:Bag>
				</dc:creator>
			</rdf:Description>
		</rdf:RDF>
    </metadata></svg>
